# xmcd
#
# Track frame offsets:
#	150
#	14075
#	31437
#	34565
#	44587
#	50202
#	79880
#	91445
#	107210
#	121262
#	138820
#	164992
#
# Disc length: 2235 seconds
#
# Revision: 0
# Processed by: cddbd v1.4PL0 Copyright (c) Steve Scherf et al.
# Submitted via: dBpowerAMP V4.0
#
DISCID=ab08b90c
DTITLE=Walter 'Shakey' Horton - They Call Me Big Walter
DYEAR=1900
DGENRE=Blues
TTITLE0=Big Walter's Boogie
TTITLE1=Hard Hearted Woman
TTITLE2=John Henry
TTITLE3=Hound Dog
TTITLE4=Interview
TTITLE5=They Call Me Big Walter
TTITLE6=Looka Here
TTITLE7=Shakey's Edmonton Blues
TTITLE8=Sugar Mama
TTITLE9=Joe Chicago
TTITLE10=Worried Worried
TTITLE11=Turkey In The Straw
EXTD=
EXTT0=
EXTT1=
EXTT2=
EXTT3=
EXTT4=
EXTT5=
EXTT6=
EXTT7=
EXTT8=
EXTT9=
EXTT10=
EXTT11=
PLAYORDER=
